<?xml version="1.0" standalone="no"?>
<!DOCTYPE svg PUBLIC "-//W3C//DTD SVG 20010904//EN"
 "http://www.w3.org/TR/2001/REC-SVG-20010904/DTD/svg10.dtd">
<svg version="1.0" xmlns="http://www.w3.org/2000/svg"
 width="300.000000pt" height="102.000000pt" viewBox="0 0 300.000000 102.000000"
 preserveAspectRatio="xMidYMid meet">

<g transform="translate(0.000000,102.000000) scale(0.100000,-0.100000)"
fill="#000000" stroke="none">
<path d="M602 822 c-15 -16 -41 -52 -59 -80 l-32 -52 312 2 311 3 39 67 c21
37 36 72 32 78 -4 6 -108 10 -291 10 l-286 0 -26 -28z"/>
<path d="M1550 690 c-8 -6 -46 -10 -85 -10 -65 0 -73 -3 -130 -42 -33 -23 -71
-50 -85 -61 l-25 -19 68 4 68 4 -31 -24 c-16 -13 -30 -27 -30 -32 0 -8 233
144 264 171 14 13 3 19 -14 9z"/>
<path d="M2730 689 c-58 -4 -150 -7 -205 -8 l-101 -1 -35 -54 -36 -53 123 -7
c68 -4 129 -4 135 0 17 10 2 -34 -27 -78 -24 -37 -25 -38 -88 -38 -44 0 -67
-5 -76 -15 -13 -16 -80 -125 -80 -131 0 -2 35 -4 78 -4 l77 0 75 133 75 132
65 5 64 5 34 58 c19 32 33 59 31 60 -2 1 -51 -1 -109 -4z"/>
<path d="M1200 683 l-66 -4 -33 -60 -33 -60 73 3 73 3 33 55 c33 55 39 72 26
68 -5 -1 -37 -3 -73 -5z"/>
<path d="M1722 681 c-100 -7 -96 -4 -164 -95 l-21 -29 65 5 66 4 -26 -36 c-58
-79 -60 -80 -133 -80 -64 0 -69 -2 -93 -32 -14 -18 -27 -30 -29 -28 -2 3 -13
18 -24 33 l-22 28 -167 0 -167 0 -44 -72 c-24 -39 -43 -73 -43 -75 0 -2 33 -4
73 -4 l74 0 19 35 c10 20 37 47 58 62 34 22 41 24 50 10 6 -8 26 -35 43 -61
l33 -46 104 0 104 0 102 128 102 127 64 5 c69 5 74 2 74 -50 0 -54 -7 -60 -75
-60 -73 0 -75 -2 -75 -91 l0 -60 132 3 132 3 30 53 c39 67 59 66 105 -5 l34
-53 88 0 c49 0 89 3 89 8 0 4 -18 31 -40 61 l-39 54 44 40 c25 21 45 46 45 55
-1 12 -6 9 -21 -11 -39 -52 -65 -58 -237 -56 l-157 1 -22 -33 -23 -33 0 152
c0 84 -3 151 -7 150 -5 -1 -50 -4 -101 -7z"/>
<path d="M2005 672 c-5 -4 -25 -28 -42 -54 l-33 -48 195 0 195 0 11 28 c7 16
7 37 2 52 l-8 25 -155 2 c-85 2 -159 0 -165 -5z"/>
<path d="M900 565 c0 -10 -14 -43 -32 -72 l-32 -53 -116 0 c-71 0 -120 -4
-127 -11 -6 -6 -56 -12 -119 -12 l-109 -2 -55 -92 c-30 -51 -64 -107 -75 -125
-11 -18 -21 -36 -23 -40 -2 -5 52 -8 120 -8 l124 0 54 98 c29 53 64 114 77
134 l23 37 117 3 118 3 39 68 c29 51 36 71 28 79 -9 9 -12 7 -12 -7z"/>
<path d="M846 260 c-2 -3 -20 -35 -40 -72 l-38 -68 831 0 830 0 41 69 c22 38
40 72 40 74 0 7 -1661 4 -1664 -3z m115 -26 c-1 -5 -11 -9 -23 -9 -12 0 -23
-6 -25 -12 -3 -9 6 -13 27 -13 17 0 29 -4 26 -9 -3 -4 -17 -6 -31 -3 -20 3
-25 0 -25 -16 0 -12 -5 -24 -11 -27 -7 -5 -9 9 -7 41 3 45 5 49 33 55 33 6 37
5 36 -7z m107 -38 c3 -30 -1 -38 -21 -47 -38 -17 -67 3 -67 47 0 27 5 37 23
43 37 14 62 -2 65 -43z m202 45 c0 -5 -10 -11 -22 -13 -18 -2 -23 -10 -23 -33
0 -23 5 -31 23 -33 29 -4 29 -22 -1 -22 -13 0 -32 9 -42 20 -27 29 -10 73 30
81 17 4 31 7 33 8 1 0 2 -3 2 -8z m217 -19 c-10 -10 -17 -22 -17 -27 0 -5 7
-17 17 -27 9 -10 13 -21 9 -26 -4 -4 -19 6 -32 21 l-24 28 0 -25 c0 -14 -4
-26 -10 -26 -5 0 -10 23 -10 50 0 28 5 50 10 50 6 0 10 -10 10 -21 0 -21 1
-20 26 6 14 15 28 25 31 21 3 -3 -1 -14 -10 -24z m108 -30 c19 -44 13 -70 -9
-39 -7 9 -19 17 -26 17 -7 0 -19 -8 -26 -17 -20 -29 -26 -8 -9 33 19 46 36 67
45 57 3 -4 15 -27 25 -51z m585 2 c0 -34 -4 -53 -10 -49 -18 11 -12 105 7 105
2 0 3 -25 3 -56z m-1004 -6 c1 -49 -10 -64 -21 -28 -9 27 -45 27 -45 -1 0 -11
-4 -17 -10 -14 -5 3 -10 26 -10 51 l0 45 42 -3 43 -3 1 -47z m162 40 c-35 -12
-36 -28 -3 -28 14 0 25 -5 25 -11 0 -7 -10 -9 -26 -5 -19 5 -25 3 -22 -6 3 -7
14 -14 26 -16 28 -4 29 -22 2 -22 -21 0 -60 33 -60 51 0 29 22 49 53 48 l32
-1 -27 -10z m375 -1 c3 -8 1 -20 -3 -27 -5 -8 -4 -22 1 -31 6 -11 5 -20 0 -24
-6 -3 -15 4 -21 15 -12 23 -40 27 -40 6 0 -8 -4 -18 -10 -21 -6 -4 -10 13 -10
44 l0 51 39 0 c23 0 41 -5 44 -13z m85 6 c-12 -3 -18 -17 -20 -46 -2 -23 -7
-42 -13 -42 -5 0 -8 17 -7 38 3 31 0 39 -20 46 -19 8 -14 10 27 9 28 0 42 -2
33 -5z m149 -9 c3 -8 1 -20 -5 -26 -9 -9 -8 -15 0 -25 8 -10 8 -17 -1 -26 -9
-9 -13 -7 -17 11 -8 28 -44 30 -44 2 0 -11 -4 -20 -10 -20 -5 0 -10 23 -10 50
l0 50 40 0 c28 0 43 -5 47 -16z m96 -31 c18 -49 14 -70 -7 -40 -17 22 -35 22
-52 0 -21 -29 -25 -9 -8 40 21 62 44 62 67 0z m74 35 c-23 -8 -28 -15 -25 -37
2 -20 9 -27 31 -29 33 -4 26 -22 -8 -22 -35 0 -62 43 -47 75 9 20 19 25 44 24
l33 -1 -28 -10z m136 -20 l16 -33 0 33 c1 53 21 36 21 -18 0 -59 -13 -63 -41
-15 -12 19 -22 35 -24 35 -2 0 -2 -12 -1 -27 0 -16 -2 -29 -6 -30 -5 -2 -8 -1
-8 2 0 3 0 23 0 45 0 50 20 53 43 8z m142 27 c-5 -2 -22 -6 -37 -9 -21 -5 -28
-12 -28 -31 0 -28 14 -39 38 -30 16 6 15 8 -2 21 -19 13 -19 14 8 14 24 0 27
-3 24 -27 -6 -57 -88 -37 -88 21 0 42 5 46 54 45 23 0 37 -2 31 -4z"/>
<path d="M1004 216 c-10 -26 0 -51 21 -51 16 0 20 7 20 30 0 33 -30 49 -41 21z"/>
<path d="M1550 200 c0 -5 5 -10 10 -10 6 0 10 5 10 10 0 6 -4 10 -10 10 -5 0
-10 -4 -10 -10z"/>
<path d="M1117 224 c-14 -14 -7 -25 13 -22 12 2 21 8 21 13 0 12 -24 18 -34 9z"/>
<path d="M1650 216 c0 -10 9 -16 21 -16 24 0 21 23 -4 28 -10 2 -17 -3 -17
-12z"/>
<path d="M1880 216 c0 -10 9 -16 21 -16 24 0 21 23 -4 28 -10 2 -17 -3 -17
-12z"/>
<path d="M2000 200 c0 -5 5 -10 10 -10 6 0 10 5 10 10 0 6 -4 10 -10 10 -5 0
-10 -4 -10 -10z"/>
<path d="M2501 193 c-37 -64 -38 -68 -19 -71 26 -5 38 8 78 81 l32 57 -26 0
c-20 0 -32 -12 -65 -67z"/>
<path d="M2586 194 c-20 -36 -35 -69 -31 -72 12 -12 36 14 71 76 31 54 33 62
17 62 -13 0 -32 -22 -57 -66z"/>
<path d="M2697 238 c-54 -88 -75 -141 -43 -108 24 26 78 130 67 130 -6 0 -17
-10 -24 -22z"/>
<path d="M2757 195 c-50 -87 -47 -97 4 -12 23 38 39 70 37 72 -2 3 -21 -25
-41 -60z"/>
<path d="M233 123 c48 -2 125 -2 170 0 45 1 6 3 -88 3 -93 0 -130 -2 -82 -3z"/>
</g>
</svg>
